<svg width="640" height="420" viewBox="0 0 640 420" fill="none" xmlns="http://www.w3.org/2000/svg">
  <defs>
    <linearGradient id="bg" x1="54" y1="58" x2="584" y2="362" gradientUnits="userSpaceOnUse">
      <stop stop-color="#8B5CF6"/>
      <stop offset="0.52" stop-color="#06B6D4"/>
      <stop offset="1" stop-color="#34D399"/>
    </linearGradient>
    <linearGradient id="chipA" x1="0" y1="0" x2="1" y2="1">
      <stop stop-color="#F472B6"/>
      <stop offset="1" stop-color="#FB7185"/>
    </linearGradient>
    <linearGradient id="chipB" x1="0" y1="0" x2="1" y2="1">
      <stop stop-color="#22D3EE"/>
      <stop offset="1" stop-color="#3B82F6"/>
    </linearGradient>
    <linearGradient id="chipC" x1="0" y1="0" x2="1" y2="1">
      <stop stop-color="#FBBF24"/>
      <stop offset="1" stop-color="#F97316"/>
    </linearGradient>
    <filter id="shadow" x="48" y="44" width="544" height="340" filterUnits="userSpaceOnUse" color-interpolation-filters="sRGB">
      <feFlood flood-opacity="0" result="BackgroundImageFix"/>
      <feColorMatrix in="SourceAlpha" type="matrix" values="0 0 0 0 0 0 0 0 0 0 0 0 0 0 0 0 0 0 127 0" result="hardAlpha"/>
      <feOffset dy="14"/>
      <feGaussianBlur stdDeviation="16"/>
      <feComposite in2="hardAlpha" operator="out"/>
      <feColorMatrix type="matrix" values="0 0 0 0 0.207843 0 0 0 0 0.203922 0 0 0 0 0.623529 0 0 0 0.24 0"/>
      <feBlend mode="normal" in2="BackgroundImageFix" result="effect1_dropShadow_1102_2"/>
      <feBlend mode="normal" in="SourceGraphic" in2="effect1_dropShadow_1102_2" result="shape"/>
    </filter>
  </defs>

  <g filter="url(#shadow)">
    <rect x="80" y="70" width="480" height="260" rx="38" fill="url(#bg)"/>
  </g>

  <ellipse cx="320" cy="205" rx="185" ry="92" stroke="white" stroke-opacity="0.6" stroke-width="3"/>
  <ellipse cx="320" cy="205" rx="120" ry="60" stroke="white" stroke-opacity="0.45" stroke-width="2"/>

  <rect x="152" y="140" width="126" height="62" rx="16" fill="url(#chipA)"/>
  <rect x="362" y="108" width="132" height="64" rx="16" fill="url(#chipB)"/>
  <rect x="288" y="248" width="148" height="70" rx="18" fill="url(#chipC)"/>

  <circle cx="192" cy="286" r="28" fill="white" fill-opacity="0.92"/>
  <circle cx="455" cy="243" r="36" fill="white" fill-opacity="0.9"/>
  <circle cx="438" cy="150" r="14" fill="#FFFFFF" fill-opacity="0.8"/>
  <circle cx="258" cy="122" r="12" fill="#FFFFFF" fill-opacity="0.78"/>
</svg>
