<svg width="560" height="360" viewBox="0 0 560 360" fill="none" xmlns="http://www.w3.org/2000/svg">
  <defs>
    <linearGradient id="panelA" x1="52" y1="74" x2="240" y2="252" gradientUnits="userSpaceOnUse">
      <stop stop-color="#A78BFA"/>
      <stop offset="1" stop-color="#6366F1"/>
    </linearGradient>
    <linearGradient id="panelB" x1="194" y1="92" x2="394" y2="302" gradientUnits="userSpaceOnUse">
      <stop stop-color="#22D3EE"/>
      <stop offset="1" stop-color="#0EA5E9"/>
    </linearGradient>
    <linearGradient id="panelC" x1="282" y1="66" x2="478" y2="262" gradientUnits="userSpaceOnUse">
      <stop stop-color="#FB7185"/>
      <stop offset="1" stop-color="#F43F5E"/>
    </linearGradient>
  </defs>

  <rect x="58" y="86" width="190" height="190" rx="28" fill="url(#panelA)"/>
  <rect x="186" y="62" width="205" height="220" rx="30" fill="url(#panelB)"/>
  <rect x="298" y="92" width="190" height="196" rx="28" fill="url(#panelC)"/>

  <rect x="96" y="126" width="108" height="16" rx="8" fill="white" fill-opacity="0.9"/>
  <rect x="96" y="154" width="136" height="14" rx="7" fill="white" fill-opacity="0.72"/>
  <rect x="96" y="178" width="84" height="14" rx="7" fill="white" fill-opacity="0.72"/>

  <rect x="222" y="106" width="126" height="18" rx="9" fill="white" fill-opacity="0.92"/>
  <rect x="222" y="138" width="142" height="14" rx="7" fill="white" fill-opacity="0.74"/>
  <rect x="222" y="164" width="90" height="14" rx="7" fill="white" fill-opacity="0.74"/>

  <rect x="334" y="132" width="114" height="17" rx="8.5" fill="white" fill-opacity="0.9"/>
  <rect x="334" y="162" width="124" height="14" rx="7" fill="white" fill-opacity="0.74"/>
  <rect x="334" y="186" width="78" height="14" rx="7" fill="white" fill-opacity="0.74"/>

  <circle cx="118" cy="234" r="20" fill="white" fill-opacity="0.86"/>
  <circle cx="360" cy="234" r="24" fill="white" fill-opacity="0.86"/>
  <circle cx="280" cy="300" r="18" fill="#F8FAFC" fill-opacity="0.95"/>
</svg>
